<svg height="480pt" viewBox="0 -48 480 480" width="480pt" xmlns="http://www.w3.org/2000/svg"><path d="m56 176h-56v-32h64" fill="#857970"/><path d="m424 176h56v-32h-64" fill="#857970"/><path d="m16 272v-50.382812c0-3.632813 1.238281-7.160157 3.503906-9.992188l28.496094-35.625h384l28.496094 35.617188c2.265625 2.839843 3.503906 6.359374 3.503906 10v50.382812l-32 32h-384zm0 0" fill="#f0d365"/><path d="m128 304v32c0 8.839844-7.160156 16-16 16h-48c-8.839844 0-16-7.160156-16-16v-32" fill="#857970"/><path d="m432 304v32c0 8.839844-7.160156 16-16 16h-48c-8.839844 0-16-7.160156-16-16v-32" fill="#857970"/><path d="m96 248c0 13.253906-10.746094 24-24 24s-24-10.746094-24-24 10.746094-24 24-24 24 10.746094 24 24zm0 0" fill="#e39854"/><path d="m432 248c0 13.253906-10.746094 24-24 24s-24-10.746094-24-24 10.746094-24 24-24 24 10.746094 24 24zm0 0" fill="#e39854"/><path d="m432 176-45.550781-114.953125c-1.417969-7.566406-8.023438-13.046875-15.730469-13.046875h-261.4375c-7.695312 0-14.304688 5.480469-15.730469 13.046875l-45.550781 114.953125" fill="#d1a339"/><path d="m80 176 40-96h240l40 96" fill="#8bd2f5"/><path d="m120 176c0-17.671875 14.328125-32 32-32h16c17.671875 0 32 14.328125 32 32" fill="#695b52"/><path d="m144 144v-16c0-8.839844 7.160156-16 16-16s16 7.160156 16 16v16" fill="#857970"/><path d="m280 176c0-17.671875 14.328125-32 32-32h16c17.671875 0 32 14.328125 32 32" fill="#695b52"/><path d="m304 144v-16c0-8.839844 7.160156-16 16-16s16 7.160156 16 16v16" fill="#857970"/><path d="m288 48v-48h-96v48" fill="#f0d365"/><path d="m192 264h96v16h-96zm0 0" fill="#e39854"/><path d="m160 232h160v16h-160zm0 0" fill="#e39854"/><path d="m0 368h480v16h-480zm0 0" fill="#695b52"/></svg>